<svg width="400" height="400" viewBox="0 0 400 400" fill="none" xmlns="http://www.w3.org/2000/svg">
<line x1="50.5" y1="66" x2="50.5" y2="352" stroke="black"/>
<line x1="50" y1="351.5" x2="336" y2="351.5" stroke="black"/>
<path d="M24.8398 49.2871H25.9648C25.9062 49.8262 25.752 50.3086 25.502 50.7344C25.252 51.1602 24.8984 51.498 24.4414 51.748C23.9844 51.9941 23.4141 52.1172 22.7305 52.1172C22.2305 52.1172 21.7754 52.0234 21.3652 51.8359C20.959 51.6484 20.6094 51.3828 20.3164 51.0391C20.0234 50.6914 19.7969 50.2754 19.6367 49.791C19.4805 49.3027 19.4023 48.7598 19.4023 48.1621V47.3125C19.4023 46.7148 19.4805 46.1738 19.6367 45.6895C19.7969 45.2012 20.0254 44.7832 20.3223 44.4355C20.623 44.0879 20.9844 43.8203 21.4062 43.6328C21.8281 43.4453 22.3027 43.3516 22.8301 43.3516C23.4746 43.3516 24.0195 43.4727 24.4648 43.7148C24.9102 43.957 25.2559 44.293 25.502 44.7227C25.752 45.1484 25.9062 45.6426 25.9648 46.2051H24.8398C24.7852 45.8066 24.6836 45.4648 24.5352 45.1797C24.3867 44.8906 24.1758 44.668 23.9023 44.5117C23.6289 44.3555 23.2715 44.2773 22.8301 44.2773C22.4512 44.2773 22.1172 44.3496 21.8281 44.4941C21.543 44.6387 21.3027 44.8438 21.1074 45.1094C20.916 45.375 20.7715 45.6934 20.6738 46.0645C20.5762 46.4355 20.5273 46.8477 20.5273 47.3008V48.1621C20.5273 48.5801 20.5703 48.9727 20.6562 49.3398C20.7461 49.707 20.8809 50.0293 21.0605 50.3066C21.2402 50.584 21.4688 50.8027 21.7461 50.9629C22.0234 51.1191 22.3516 51.1973 22.7305 51.1973C23.2109 51.1973 23.5938 51.1211 23.8789 50.9688C24.1641 50.8164 24.3789 50.5977 24.5234 50.3125C24.6719 50.0273 24.7773 49.6855 24.8398 49.2871ZM27.0547 48.9004V48.7656C27.0547 48.3086 27.1211 47.8848 27.2539 47.4941C27.3867 47.0996 27.5781 46.7578 27.8281 46.4688C28.0781 46.1758 28.3809 45.9492 28.7363 45.7891C29.0918 45.625 29.4902 45.543 29.9316 45.543C30.377 45.543 30.7773 45.625 31.1328 45.7891C31.4922 45.9492 31.7969 46.1758 32.0469 46.4688C32.3008 46.7578 32.4941 47.0996 32.627 47.4941C32.7598 47.8848 32.8262 48.3086 32.8262 48.7656V48.9004C32.8262 49.3574 32.7598 49.7812 32.627 50.1719C32.4941 50.5625 32.3008 50.9043 32.0469 51.1973C31.7969 51.4863 31.4941 51.7129 31.1387 51.877C30.7871 52.0371 30.3887 52.1172 29.9434 52.1172C29.498 52.1172 29.0977 52.0371 28.7422 51.877C28.3867 51.7129 28.082 51.4863 27.8281 51.1973C27.5781 50.9043 27.3867 50.5625 27.2539 50.1719C27.1211 49.7812 27.0547 49.3574 27.0547 48.9004ZM28.1387 48.7656V48.9004C28.1387 49.2168 28.1758 49.5156 28.25 49.7969C28.3242 50.0742 28.4355 50.3203 28.584 50.5352C28.7363 50.75 28.9258 50.9199 29.1523 51.0449C29.3789 51.166 29.6426 51.2266 29.9434 51.2266C30.2402 51.2266 30.5 51.166 30.7227 51.0449C30.9492 50.9199 31.1367 50.75 31.2852 50.5352C31.4336 50.3203 31.5449 50.0742 31.6191 49.7969C31.6973 49.5156 31.7363 49.2168 31.7363 48.9004V48.7656C31.7363 48.4531 31.6973 48.1582 31.6191 47.8809C31.5449 47.5996 31.4316 47.3516 31.2793 47.1367C31.1309 46.918 30.9434 46.7461 30.7168 46.6211C30.4941 46.4961 30.2324 46.4336 29.9316 46.4336C29.6348 46.4336 29.373 46.4961 29.1465 46.6211C28.9238 46.7461 28.7363 46.918 28.584 47.1367C28.4355 47.3516 28.3242 47.5996 28.25 47.8809C28.1758 48.1582 28.1387 48.4531 28.1387 48.7656ZM35.8027 52H34.7188V44.9922C34.7188 44.5352 34.8008 44.1504 34.9648 43.8379C35.1328 43.5215 35.373 43.2832 35.6855 43.123C35.998 42.959 36.3691 42.877 36.7988 42.877C36.9238 42.877 37.0488 42.8848 37.1738 42.9004C37.3027 42.916 37.4277 42.9395 37.5488 42.9707L37.4902 43.8555C37.4082 43.8359 37.3145 43.8223 37.209 43.8145C37.1074 43.8066 37.0059 43.8027 36.9043 43.8027C36.6738 43.8027 36.4746 43.8496 36.3066 43.9434C36.1426 44.0332 36.0176 44.166 35.9316 44.3418C35.8457 44.5176 35.8027 44.7344 35.8027 44.9922V52ZM37.1504 45.6602V46.4922H33.7168V45.6602H37.1504ZM39.9746 52H38.8906V44.9922C38.8906 44.5352 38.9727 44.1504 39.1367 43.8379C39.3047 43.5215 39.5449 43.2832 39.8574 43.123C40.1699 42.959 40.541 42.877 40.9707 42.877C41.0957 42.877 41.2207 42.8848 41.3457 42.9004C41.4746 42.916 41.5996 42.9395 41.7207 42.9707L41.6621 43.8555C41.5801 43.8359 41.4863 43.8223 41.3809 43.8145C41.2793 43.8066 41.1777 43.8027 41.0762 43.8027C40.8457 43.8027 40.6465 43.8496 40.4785 43.9434C40.3145 44.0332 40.1895 44.166 40.1035 44.3418C40.0176 44.5176 39.9746 44.7344 39.9746 44.9922V52ZM41.3223 45.6602V46.4922H37.8887V45.6602H41.3223ZM45.0195 52.1172C44.5781 52.1172 44.1777 52.043 43.8184 51.8945C43.4629 51.7422 43.1562 51.5293 42.8984 51.2559C42.6445 50.9824 42.4492 50.6582 42.3125 50.2832C42.1758 49.9082 42.1074 49.498 42.1074 49.0527V48.8066C42.1074 48.291 42.1836 47.832 42.3359 47.4297C42.4883 47.0234 42.6953 46.6797 42.957 46.3984C43.2188 46.1172 43.5156 45.9043 43.8477 45.7598C44.1797 45.6152 44.5234 45.543 44.8789 45.543C45.332 45.543 45.7227 45.6211 46.0508 45.7773C46.3828 45.9336 46.6543 46.1523 46.8652 46.4336C47.0762 46.7109 47.2324 47.0391 47.334 47.418C47.4355 47.793 47.4863 48.2031 47.4863 48.6484V49.1348H42.752V48.25H46.4023V48.168C46.3867 47.8867 46.3281 47.6133 46.2266 47.3477C46.1289 47.082 45.9727 46.8633 45.7578 46.6914C45.543 46.5195 45.25 46.4336 44.8789 46.4336C44.6328 46.4336 44.4062 46.4863 44.1992 46.5918C43.9922 46.6934 43.8145 46.8457 43.666 47.0488C43.5176 47.252 43.4023 47.5 43.3203 47.793C43.2383 48.0859 43.1973 48.4238 43.1973 48.8066V49.0527C43.1973 49.3535 43.2383 49.6367 43.3203 49.9023C43.4062 50.1641 43.5293 50.3945 43.6895 50.5938C43.8535 50.793 44.0508 50.9492 44.2812 51.0625C44.5156 51.1758 44.7812 51.2324 45.0781 51.2324C45.4609 51.2324 45.7852 51.1543 46.0508 50.998C46.3164 50.8418 46.5488 50.6328 46.748 50.3711L47.4043 50.8926C47.2676 51.0996 47.0938 51.2969 46.8828 51.4844C46.6719 51.6719 46.4121 51.8242 46.1035 51.9414C45.7988 52.0586 45.4375 52.1172 45.0195 52.1172ZM52.25 43.4688H53.3457L56.1406 50.4238L58.9297 43.4688H60.0312L56.5625 52H55.707L52.25 43.4688ZM51.8926 43.4688H52.8594L53.0176 48.6719V52H51.8926V43.4688ZM59.416 43.4688H60.3828V52H59.2578V48.6719L59.416 43.4688ZM65.9434 50.916V47.6523C65.9434 47.4023 65.8926 47.1855 65.791 47.002C65.6934 46.8145 65.5449 46.6699 65.3457 46.5684C65.1465 46.4668 64.9004 46.416 64.6074 46.416C64.334 46.416 64.0938 46.4629 63.8867 46.5566C63.6836 46.6504 63.5234 46.7734 63.4062 46.9258C63.293 47.0781 63.2363 47.2422 63.2363 47.418H62.1523C62.1523 47.1914 62.2109 46.9668 62.3281 46.7441C62.4453 46.5215 62.6133 46.3203 62.832 46.1406C63.0547 45.957 63.3203 45.8125 63.6289 45.707C63.9414 45.5977 64.2891 45.543 64.6719 45.543C65.1328 45.543 65.5391 45.6211 65.8906 45.7773C66.2461 45.9336 66.5234 46.1699 66.7227 46.4863C66.9258 46.7988 67.0273 47.1914 67.0273 47.6641V50.6172C67.0273 50.8281 67.0449 51.0527 67.0801 51.291C67.1191 51.5293 67.1758 51.7344 67.25 51.9062V52H66.1191C66.0645 51.875 66.0215 51.709 65.9902 51.502C65.959 51.291 65.9434 51.0957 65.9434 50.916ZM66.1309 48.1562L66.1426 48.918H65.0469C64.7383 48.918 64.4629 48.9434 64.2207 48.9941C63.9785 49.041 63.7754 49.1133 63.6113 49.2109C63.4473 49.3086 63.3223 49.4316 63.2363 49.5801C63.1504 49.7246 63.1074 49.8945 63.1074 50.0898C63.1074 50.2891 63.1523 50.4707 63.2422 50.6348C63.332 50.7988 63.4668 50.9297 63.6465 51.0273C63.8301 51.1211 64.0547 51.168 64.3203 51.168C64.6523 51.168 64.9453 51.0977 65.1992 50.957C65.4531 50.8164 65.6543 50.6445 65.8027 50.4414C65.9551 50.2383 66.0371 50.041 66.0488 49.8496L66.5117 50.3711C66.4844 50.5352 66.4102 50.7168 66.2891 50.916C66.168 51.1152 66.0059 51.3066 65.8027 51.4902C65.6035 51.6699 65.3652 51.8203 65.0879 51.9414C64.8145 52.0586 64.5059 52.1172 64.1621 52.1172C63.7324 52.1172 63.3555 52.0332 63.0312 51.8652C62.7109 51.6973 62.4609 51.4727 62.2812 51.1914C62.1055 50.9062 62.0176 50.5879 62.0176 50.2363C62.0176 49.8965 62.084 49.5977 62.2168 49.3398C62.3496 49.0781 62.541 48.8613 62.791 48.6895C63.041 48.5137 63.3418 48.3809 63.6934 48.291C64.0449 48.2012 64.4375 48.1562 64.8711 48.1562H66.1309ZM69.8223 43V52H68.7324V43H69.8223ZM73.6953 45.6602L70.9297 48.6191L69.3828 50.2246L69.2949 49.0703L70.4023 47.7461L72.3711 45.6602H73.6953ZM72.7051 52L70.4434 48.9766L71.0059 48.0098L73.9824 52H72.7051ZM77.3281 52.1172C76.8867 52.1172 76.4863 52.043 76.127 51.8945C75.7715 51.7422 75.4648 51.5293 75.207 51.2559C74.9531 50.9824 74.7578 50.6582 74.6211 50.2832C74.4844 49.9082 74.416 49.498 74.416 49.0527V48.8066C74.416 48.291 74.4922 47.832 74.6445 47.4297C74.7969 47.0234 75.0039 46.6797 75.2656 46.3984C75.5273 46.1172 75.8242 45.9043 76.1562 45.7598C76.4883 45.6152 76.832 45.543 77.1875 45.543C77.6406 45.543 78.0312 45.6211 78.3594 45.7773C78.6914 45.9336 78.9629 46.1523 79.1738 46.4336C79.3848 46.7109 79.541 47.0391 79.6426 47.418C79.7441 47.793 79.7949 48.2031 79.7949 48.6484V49.1348H75.0605V48.25H78.7109V48.168C78.6953 47.8867 78.6367 47.6133 78.5352 47.3477C78.4375 47.082 78.2812 46.8633 78.0664 46.6914C77.8516 46.5195 77.5586 46.4336 77.1875 46.4336C76.9414 46.4336 76.7148 46.4863 76.5078 46.5918C76.3008 46.6934 76.123 46.8457 75.9746 47.0488C75.8262 47.252 75.7109 47.5 75.6289 47.793C75.5469 48.0859 75.5059 48.4238 75.5059 48.8066V49.0527C75.5059 49.3535 75.5469 49.6367 75.6289 49.9023C75.7148 50.1641 75.8379 50.3945 75.998 50.5938C76.1621 50.793 76.3594 50.9492 76.5898 51.0625C76.8242 51.1758 77.0898 51.2324 77.3867 51.2324C77.7695 51.2324 78.0938 51.1543 78.3594 50.998C78.625 50.8418 78.8574 50.6328 79.0566 50.3711L79.7129 50.8926C79.5762 51.0996 79.4023 51.2969 79.1914 51.4844C78.9805 51.6719 78.7207 51.8242 78.4121 51.9414C78.1074 52.0586 77.7461 52.1172 77.3281 52.1172ZM82.1445 46.6562V52H81.0605V45.6602H82.1152L82.1445 46.6562ZM84.125 45.625L84.1191 46.6328C84.0293 46.6133 83.9434 46.6016 83.8613 46.5977C83.7832 46.5898 83.6934 46.5859 83.5918 46.5859C83.3418 46.5859 83.1211 46.625 82.9297 46.7031C82.7383 46.7812 82.5762 46.8906 82.4434 47.0312C82.3105 47.1719 82.2051 47.3398 82.127 47.5352C82.0527 47.7266 82.0039 47.9375 81.9805 48.168L81.6758 48.3438C81.6758 47.9609 81.7129 47.6016 81.7871 47.2656C81.8652 46.9297 81.9844 46.6328 82.1445 46.375C82.3047 46.1133 82.5078 45.9102 82.7539 45.7656C83.0039 45.6172 83.3008 45.543 83.6445 45.543C83.7227 45.543 83.8125 45.5527 83.9141 45.5723C84.0156 45.5879 84.0859 45.6055 84.125 45.625Z" fill="black"/>
<path d="M300.135 371.287H301.26C301.201 371.826 301.047 372.309 300.797 372.734C300.547 373.16 300.193 373.498 299.736 373.748C299.279 373.994 298.709 374.117 298.025 374.117C297.525 374.117 297.07 374.023 296.66 373.836C296.254 373.648 295.904 373.383 295.611 373.039C295.318 372.691 295.092 372.275 294.932 371.791C294.775 371.303 294.697 370.76 294.697 370.162V369.312C294.697 368.715 294.775 368.174 294.932 367.689C295.092 367.201 295.32 366.783 295.617 366.436C295.918 366.088 296.279 365.82 296.701 365.633C297.123 365.445 297.598 365.352 298.125 365.352C298.77 365.352 299.314 365.473 299.76 365.715C300.205 365.957 300.551 366.293 300.797 366.723C301.047 367.148 301.201 367.643 301.26 368.205H300.135C300.08 367.807 299.979 367.465 299.83 367.18C299.682 366.891 299.471 366.668 299.197 366.512C298.924 366.355 298.566 366.277 298.125 366.277C297.746 366.277 297.412 366.35 297.123 366.494C296.838 366.639 296.598 366.844 296.402 367.109C296.211 367.375 296.066 367.693 295.969 368.064C295.871 368.436 295.822 368.848 295.822 369.301V370.162C295.822 370.58 295.865 370.973 295.951 371.34C296.041 371.707 296.176 372.029 296.355 372.307C296.535 372.584 296.764 372.803 297.041 372.963C297.318 373.119 297.646 373.197 298.025 373.197C298.506 373.197 298.889 373.121 299.174 372.969C299.459 372.816 299.674 372.598 299.818 372.312C299.967 372.027 300.072 371.686 300.135 371.287ZM305.268 374.117C304.826 374.117 304.426 374.043 304.066 373.895C303.711 373.742 303.404 373.529 303.146 373.256C302.893 372.982 302.697 372.658 302.561 372.283C302.424 371.908 302.355 371.498 302.355 371.053V370.807C302.355 370.291 302.432 369.832 302.584 369.43C302.736 369.023 302.943 368.68 303.205 368.398C303.467 368.117 303.764 367.904 304.096 367.76C304.428 367.615 304.771 367.543 305.127 367.543C305.58 367.543 305.971 367.621 306.299 367.777C306.631 367.934 306.902 368.152 307.113 368.434C307.324 368.711 307.48 369.039 307.582 369.418C307.684 369.793 307.734 370.203 307.734 370.648V371.135H303V370.25H306.65V370.168C306.635 369.887 306.576 369.613 306.475 369.348C306.377 369.082 306.221 368.863 306.006 368.691C305.791 368.52 305.498 368.434 305.127 368.434C304.881 368.434 304.654 368.486 304.447 368.592C304.24 368.693 304.062 368.846 303.914 369.049C303.766 369.252 303.65 369.5 303.568 369.793C303.486 370.086 303.445 370.424 303.445 370.807V371.053C303.445 371.354 303.486 371.637 303.568 371.902C303.654 372.164 303.777 372.395 303.938 372.594C304.102 372.793 304.299 372.949 304.529 373.062C304.764 373.176 305.029 373.232 305.326 373.232C305.709 373.232 306.033 373.154 306.299 372.998C306.564 372.842 306.797 372.633 306.996 372.371L307.652 372.893C307.516 373.1 307.342 373.297 307.131 373.484C306.92 373.672 306.66 373.824 306.352 373.941C306.047 374.059 305.686 374.117 305.268 374.117ZM310.178 365V374H309.088V365H310.178ZM313.096 365V374H312.006V365H313.096ZM321.123 370.654H318.844V369.734H321.123C321.564 369.734 321.922 369.664 322.195 369.523C322.469 369.383 322.668 369.188 322.793 368.938C322.922 368.688 322.986 368.402 322.986 368.082C322.986 367.789 322.922 367.514 322.793 367.256C322.668 366.998 322.469 366.791 322.195 366.635C321.922 366.475 321.564 366.395 321.123 366.395H319.107V374H317.977V365.469H321.123C321.768 365.469 322.312 365.58 322.758 365.803C323.203 366.025 323.541 366.334 323.771 366.729C324.002 367.119 324.117 367.566 324.117 368.07C324.117 368.617 324.002 369.084 323.771 369.471C323.541 369.857 323.203 370.152 322.758 370.355C322.312 370.555 321.768 370.654 321.123 370.654ZM326.467 365V374H325.383V365H326.467ZM326.209 370.59L325.758 370.572C325.762 370.139 325.826 369.738 325.951 369.371C326.076 369 326.252 368.678 326.479 368.404C326.705 368.131 326.975 367.92 327.287 367.771C327.604 367.619 327.953 367.543 328.336 367.543C328.648 367.543 328.93 367.586 329.18 367.672C329.43 367.754 329.643 367.887 329.818 368.07C329.998 368.254 330.135 368.492 330.229 368.785C330.322 369.074 330.369 369.428 330.369 369.846V374H329.279V369.834C329.279 369.502 329.23 369.236 329.133 369.037C329.035 368.834 328.893 368.688 328.705 368.598C328.518 368.504 328.287 368.457 328.014 368.457C327.744 368.457 327.498 368.514 327.275 368.627C327.057 368.74 326.867 368.896 326.707 369.096C326.551 369.295 326.428 369.523 326.338 369.781C326.252 370.035 326.209 370.305 326.209 370.59ZM331.705 370.9V370.766C331.705 370.309 331.771 369.885 331.904 369.494C332.037 369.1 332.229 368.758 332.479 368.469C332.729 368.176 333.031 367.949 333.387 367.789C333.742 367.625 334.141 367.543 334.582 367.543C335.027 367.543 335.428 367.625 335.783 367.789C336.143 367.949 336.447 368.176 336.697 368.469C336.951 368.758 337.145 369.1 337.277 369.494C337.41 369.885 337.477 370.309 337.477 370.766V370.9C337.477 371.357 337.41 371.781 337.277 372.172C337.145 372.562 336.951 372.904 336.697 373.197C336.447 373.486 336.145 373.713 335.789 373.877C335.438 374.037 335.039 374.117 334.594 374.117C334.148 374.117 333.748 374.037 333.393 373.877C333.037 373.713 332.732 373.486 332.479 373.197C332.229 372.904 332.037 372.562 331.904 372.172C331.771 371.781 331.705 371.357 331.705 370.9ZM332.789 370.766V370.9C332.789 371.217 332.826 371.516 332.9 371.797C332.975 372.074 333.086 372.32 333.234 372.535C333.387 372.75 333.576 372.92 333.803 373.045C334.029 373.166 334.293 373.227 334.594 373.227C334.891 373.227 335.15 373.166 335.373 373.045C335.6 372.92 335.787 372.75 335.936 372.535C336.084 372.32 336.195 372.074 336.27 371.797C336.348 371.516 336.387 371.217 336.387 370.9V370.766C336.387 370.453 336.348 370.158 336.27 369.881C336.195 369.6 336.082 369.352 335.93 369.137C335.781 368.918 335.594 368.746 335.367 368.621C335.145 368.496 334.883 368.434 334.582 368.434C334.285 368.434 334.023 368.496 333.797 368.621C333.574 368.746 333.387 368.918 333.234 369.137C333.086 369.352 332.975 369.6 332.9 369.881C332.826 370.158 332.789 370.453 332.789 370.766ZM339.92 369.014V374H338.836V367.66H339.861L339.92 369.014ZM339.662 370.59L339.211 370.572C339.215 370.139 339.279 369.738 339.404 369.371C339.529 369 339.705 368.678 339.932 368.404C340.158 368.131 340.428 367.92 340.74 367.771C341.057 367.619 341.406 367.543 341.789 367.543C342.102 367.543 342.383 367.586 342.633 367.672C342.883 367.754 343.096 367.887 343.271 368.07C343.451 368.254 343.588 368.492 343.682 368.785C343.775 369.074 343.822 369.428 343.822 369.846V374H342.732V369.834C342.732 369.502 342.684 369.236 342.586 369.037C342.488 368.834 342.346 368.688 342.158 368.598C341.971 368.504 341.74 368.457 341.467 368.457C341.197 368.457 340.951 368.514 340.729 368.627C340.51 368.74 340.32 368.896 340.16 369.096C340.004 369.295 339.881 369.523 339.791 369.781C339.705 370.035 339.662 370.305 339.662 370.59ZM348.1 374.117C347.658 374.117 347.258 374.043 346.898 373.895C346.543 373.742 346.236 373.529 345.979 373.256C345.725 372.982 345.529 372.658 345.393 372.283C345.256 371.908 345.188 371.498 345.188 371.053V370.807C345.188 370.291 345.264 369.832 345.416 369.43C345.568 369.023 345.775 368.68 346.037 368.398C346.299 368.117 346.596 367.904 346.928 367.76C347.26 367.615 347.604 367.543 347.959 367.543C348.412 367.543 348.803 367.621 349.131 367.777C349.463 367.934 349.734 368.152 349.945 368.434C350.156 368.711 350.312 369.039 350.414 369.418C350.516 369.793 350.566 370.203 350.566 370.648V371.135H345.832V370.25H349.482V370.168C349.467 369.887 349.408 369.613 349.307 369.348C349.209 369.082 349.053 368.863 348.838 368.691C348.623 368.52 348.33 368.434 347.959 368.434C347.713 368.434 347.486 368.486 347.279 368.592C347.072 368.693 346.895 368.846 346.746 369.049C346.598 369.252 346.482 369.5 346.4 369.793C346.318 370.086 346.277 370.424 346.277 370.807V371.053C346.277 371.354 346.318 371.637 346.4 371.902C346.486 372.164 346.609 372.395 346.77 372.594C346.934 372.793 347.131 372.949 347.361 373.062C347.596 373.176 347.861 373.232 348.158 373.232C348.541 373.232 348.865 373.154 349.131 372.998C349.396 372.842 349.629 372.633 349.828 372.371L350.484 372.893C350.348 373.1 350.174 373.297 349.963 373.484C349.752 373.672 349.492 373.824 349.184 373.941C348.879 374.059 348.518 374.117 348.1 374.117Z" fill="black"/>
<path d="M50 104C50 104 140.068 104 210.5 204M261 351C261 351 261 275.7 210.5 204M210.5 204C218.831 215.828 203.948 192.724 210.5 204Z" stroke="black"/>
<path d="M50 93C50 93 160.131 93 246.251 197.453M308 351C308 351 308 272.347 246.251 197.453M246.251 197.453C256.437 209.808 238.24 185.676 246.251 197.453Z" stroke="black"/>
<path d="M246 351V275.282H51M197.5 351V188H51M112.254 351V121H51" stroke="black" stroke-dasharray="2 2"/>
<path d="M38.2344 96.2246L35.4102 104H34.2559L37.5078 95.4688H38.252L38.2344 96.2246ZM40.6016 104L37.7715 96.2246L37.7539 95.4688H38.498L41.7617 104H40.6016ZM40.4551 100.842V101.768H35.6621V100.842H40.4551Z" fill="black"/>
<path d="M111.896 363.422V372H110.812V364.775L108.627 365.572V364.594L111.727 363.422H111.896Z" fill="black"/>
<path d="M202.424 369.109V370H196.84V369.221L199.635 366.109C199.979 365.727 200.244 365.402 200.432 365.137C200.623 364.867 200.756 364.627 200.83 364.416C200.908 364.201 200.947 363.982 200.947 363.76C200.947 363.479 200.889 363.225 200.771 362.998C200.658 362.768 200.49 362.584 200.268 362.447C200.045 362.311 199.775 362.242 199.459 362.242C199.08 362.242 198.764 362.316 198.51 362.465C198.26 362.609 198.072 362.812 197.947 363.074C197.822 363.336 197.76 363.637 197.76 363.977H196.676C196.676 363.496 196.781 363.057 196.992 362.658C197.203 362.26 197.516 361.943 197.93 361.709C198.344 361.471 198.854 361.352 199.459 361.352C199.998 361.352 200.459 361.447 200.842 361.639C201.225 361.826 201.518 362.092 201.721 362.436C201.928 362.775 202.031 363.174 202.031 363.631C202.031 363.881 201.988 364.135 201.902 364.393C201.82 364.646 201.705 364.9 201.557 365.154C201.412 365.408 201.242 365.658 201.047 365.904C200.855 366.15 200.65 366.393 200.432 366.631L198.146 369.109H202.424Z" fill="black"/>
<path d="M245.916 365.201H246.689C247.068 365.201 247.381 365.139 247.627 365.014C247.877 364.885 248.062 364.711 248.184 364.492C248.309 364.27 248.371 364.02 248.371 363.742C248.371 363.414 248.316 363.139 248.207 362.916C248.098 362.693 247.934 362.525 247.715 362.412C247.496 362.299 247.219 362.242 246.883 362.242C246.578 362.242 246.309 362.303 246.074 362.424C245.844 362.541 245.662 362.709 245.529 362.928C245.4 363.146 245.336 363.404 245.336 363.701H244.252C244.252 363.268 244.361 362.873 244.58 362.518C244.799 362.162 245.105 361.879 245.5 361.668C245.898 361.457 246.359 361.352 246.883 361.352C247.398 361.352 247.85 361.443 248.236 361.627C248.623 361.807 248.924 362.076 249.139 362.436C249.354 362.791 249.461 363.234 249.461 363.766C249.461 363.98 249.41 364.211 249.309 364.457C249.211 364.699 249.057 364.926 248.846 365.137C248.639 365.348 248.369 365.521 248.037 365.658C247.705 365.791 247.307 365.857 246.842 365.857H245.916V365.201ZM245.916 366.092V365.441H246.842C247.385 365.441 247.834 365.506 248.189 365.635C248.545 365.764 248.824 365.936 249.027 366.15C249.234 366.365 249.379 366.602 249.461 366.859C249.547 367.113 249.59 367.367 249.59 367.621C249.59 368.02 249.521 368.373 249.385 368.682C249.252 368.99 249.062 369.252 248.816 369.467C248.574 369.682 248.289 369.844 247.961 369.953C247.633 370.062 247.275 370.117 246.889 370.117C246.518 370.117 246.168 370.064 245.84 369.959C245.516 369.854 245.229 369.701 244.979 369.502C244.729 369.299 244.533 369.051 244.393 368.758C244.252 368.461 244.182 368.123 244.182 367.744H245.266C245.266 368.041 245.33 368.301 245.459 368.523C245.592 368.746 245.779 368.92 246.021 369.045C246.268 369.166 246.557 369.227 246.889 369.227C247.221 369.227 247.506 369.17 247.744 369.057C247.986 368.939 248.172 368.764 248.301 368.529C248.434 368.295 248.5 368 248.5 367.645C248.5 367.289 248.426 366.998 248.277 366.771C248.129 366.541 247.918 366.371 247.645 366.262C247.375 366.148 247.057 366.092 246.689 366.092H245.916Z" fill="black"/>
<path d="M271.6 366.129V367.02H265.436V366.381L269.256 360.469H270.141L269.191 362.18L266.666 366.129H271.6ZM270.41 360.469V369H269.326V360.469H270.41Z" fill="black"/>
<path d="M34.0215 120.422V129H32.9375V121.775L30.752 122.572V121.594L33.8516 120.422H34.0215ZM42.5645 124.055V125.355C42.5645 126.055 42.502 126.645 42.377 127.125C42.252 127.605 42.0723 127.992 41.8379 128.285C41.6035 128.578 41.3203 128.791 40.9883 128.924C40.6602 129.053 40.2891 129.117 39.875 129.117C39.5469 129.117 39.2441 129.076 38.9668 128.994C38.6895 128.912 38.4395 128.781 38.2168 128.602C37.998 128.418 37.8105 128.18 37.6543 127.887C37.498 127.594 37.3789 127.238 37.2969 126.82C37.2148 126.402 37.1738 125.914 37.1738 125.355V124.055C37.1738 123.355 37.2363 122.77 37.3613 122.297C37.4902 121.824 37.6719 121.445 37.9062 121.16C38.1406 120.871 38.4219 120.664 38.75 120.539C39.082 120.414 39.4531 120.352 39.8633 120.352C40.1953 120.352 40.5 120.393 40.7773 120.475C41.0586 120.553 41.3086 120.68 41.5273 120.855C41.7461 121.027 41.9316 121.258 42.084 121.547C42.2402 121.832 42.3594 122.182 42.4414 122.596C42.5234 123.01 42.5645 123.496 42.5645 124.055ZM41.4746 125.531V123.873C41.4746 123.49 41.4512 123.154 41.4043 122.865C41.3613 122.572 41.2969 122.322 41.2109 122.115C41.125 121.908 41.0156 121.74 40.8828 121.611C40.7539 121.482 40.6035 121.389 40.4316 121.33C40.2637 121.268 40.0742 121.236 39.8633 121.236C39.6055 121.236 39.377 121.285 39.1777 121.383C38.9785 121.477 38.8105 121.627 38.6738 121.834C38.541 122.041 38.4395 122.312 38.3691 122.648C38.2988 122.984 38.2637 123.393 38.2637 123.873V125.531C38.2637 125.914 38.2852 126.252 38.3281 126.545C38.375 126.838 38.4434 127.092 38.5332 127.307C38.623 127.518 38.7324 127.691 38.8613 127.828C38.9902 127.965 39.1387 128.066 39.3066 128.133C39.4785 128.195 39.668 128.227 39.875 128.227C40.1406 128.227 40.373 128.176 40.5723 128.074C40.7715 127.973 40.9375 127.814 41.0703 127.6C41.207 127.381 41.3086 127.102 41.375 126.762C41.4414 126.418 41.4746 126.008 41.4746 125.531Z" fill="black"/>
<path d="M42.3477 184.469V185.078L38.8145 193H37.6719L41.1992 185.359H36.582V184.469H42.3477Z" fill="black"/>
<path d="M39.0996 275.129V276.02H32.9355V275.381L36.7559 269.469H37.6406L36.6914 271.18L34.166 275.129H39.0996ZM37.9102 269.469V278H36.8262V269.469H37.9102Z" fill="black"/>
<path d="M284.471 257.168C284.564 256.908 284.428 256.622 284.168 256.529L279.93 255.016C279.67 254.923 279.384 255.058 279.291 255.318C279.198 255.578 279.334 255.864 279.594 255.957L283.361 257.303L282.016 261.07C281.923 261.33 282.058 261.616 282.318 261.709C282.578 261.802 282.864 261.666 282.957 261.406L284.471 257.168ZM246.214 275.452L284.214 257.452L283.786 256.548L245.786 274.548L246.214 275.452Z" fill="black"/>
<path d="M122.498 108.95C122.47 108.675 122.225 108.475 121.95 108.502L117.473 108.95C117.198 108.978 116.997 109.223 117.025 109.498C117.052 109.772 117.297 109.973 117.572 109.945L121.552 109.547L121.95 113.527C121.978 113.802 122.223 114.003 122.498 113.975C122.772 113.948 122.973 113.703 122.945 113.428L122.498 108.95ZM113.387 120.317L122.387 109.317L121.613 108.683L112.613 119.683L113.387 120.317Z" fill="black"/>
<path d="M223.488 172.107C223.548 171.837 223.377 171.571 223.107 171.512L218.712 170.547C218.442 170.488 218.175 170.658 218.116 170.928C218.057 171.198 218.228 171.464 218.497 171.524L222.404 172.381L221.547 176.288C221.488 176.558 221.658 176.825 221.928 176.884C222.198 176.943 222.464 176.772 222.524 176.503L223.488 172.107ZM198.27 188.421L223.27 172.421L222.73 171.579L197.73 187.579L198.27 188.421Z" fill="black"/>
<path d="M230.363 78.0801V79H225.846V78.0801H230.363ZM226.074 70.4688V79H224.943V70.4688H226.074ZM229.766 74.1367V75.0566H225.846V74.1367H229.766ZM230.305 70.4688V71.3945H225.846V70.4688H230.305ZM234.02 78.2266C234.277 78.2266 234.516 78.1738 234.734 78.0684C234.953 77.9629 235.133 77.8184 235.273 77.6348C235.414 77.4473 235.494 77.2344 235.514 76.9961H236.545C236.525 77.3711 236.398 77.7207 236.164 78.0449C235.934 78.3652 235.631 78.625 235.256 78.8242C234.881 79.0195 234.469 79.1172 234.02 79.1172C233.543 79.1172 233.127 79.0332 232.771 78.8652C232.42 78.6973 232.127 78.4668 231.893 78.1738C231.662 77.8809 231.488 77.5449 231.371 77.166C231.258 76.7832 231.201 76.3789 231.201 75.9531V75.707C231.201 75.2812 231.258 74.8789 231.371 74.5C231.488 74.1172 231.662 73.7793 231.893 73.4863C232.127 73.1934 232.42 72.9629 232.771 72.7949C233.127 72.627 233.543 72.543 234.02 72.543C234.516 72.543 234.949 72.6445 235.32 72.8477C235.691 73.0469 235.982 73.3203 236.193 73.668C236.408 74.0117 236.525 74.4023 236.545 74.8398H235.514C235.494 74.5781 235.42 74.3418 235.291 74.1309C235.166 73.9199 234.994 73.752 234.775 73.627C234.561 73.498 234.309 73.4336 234.02 73.4336C233.688 73.4336 233.408 73.5 233.182 73.6328C232.959 73.7617 232.781 73.9375 232.648 74.1602C232.52 74.3789 232.426 74.623 232.367 74.8926C232.312 75.1582 232.285 75.4297 232.285 75.707V75.9531C232.285 76.2305 232.312 76.5039 232.367 76.7734C232.422 77.043 232.514 77.2871 232.643 77.5059C232.775 77.7246 232.953 77.9004 233.176 78.0332C233.402 78.1621 233.684 78.2266 234.02 78.2266ZM237.477 75.9004V75.7656C237.477 75.3086 237.543 74.8848 237.676 74.4941C237.809 74.0996 238 73.7578 238.25 73.4688C238.5 73.1758 238.803 72.9492 239.158 72.7891C239.514 72.625 239.912 72.543 240.354 72.543C240.799 72.543 241.199 72.625 241.555 72.7891C241.914 72.9492 242.219 73.1758 242.469 73.4688C242.723 73.7578 242.916 74.0996 243.049 74.4941C243.182 74.8848 243.248 75.3086 243.248 75.7656V75.9004C243.248 76.3574 243.182 76.7812 243.049 77.1719C242.916 77.5625 242.723 77.9043 242.469 78.1973C242.219 78.4863 241.916 78.7129 241.561 78.877C241.209 79.0371 240.811 79.1172 240.365 79.1172C239.92 79.1172 239.52 79.0371 239.164 78.877C238.809 78.7129 238.504 78.4863 238.25 78.1973C238 77.9043 237.809 77.5625 237.676 77.1719C237.543 76.7812 237.477 76.3574 237.477 75.9004ZM238.561 75.7656V75.9004C238.561 76.2168 238.598 76.5156 238.672 76.7969C238.746 77.0742 238.857 77.3203 239.006 77.5352C239.158 77.75 239.348 77.9199 239.574 78.0449C239.801 78.166 240.064 78.2266 240.365 78.2266C240.662 78.2266 240.922 78.166 241.145 78.0449C241.371 77.9199 241.559 77.75 241.707 77.5352C241.855 77.3203 241.967 77.0742 242.041 76.7969C242.119 76.5156 242.158 76.2168 242.158 75.9004V75.7656C242.158 75.4531 242.119 75.1582 242.041 74.8809C241.967 74.5996 241.854 74.3516 241.701 74.1367C241.553 73.918 241.365 73.7461 241.139 73.6211C240.916 73.4961 240.654 73.4336 240.354 73.4336C240.057 73.4336 239.795 73.4961 239.568 73.6211C239.346 73.7461 239.158 73.918 239.006 74.1367C238.857 74.3516 238.746 74.5996 238.672 74.8809C238.598 75.1582 238.561 75.4531 238.561 75.7656ZM245.691 74.0137V79H244.607V72.6602H245.633L245.691 74.0137ZM245.434 75.5898L244.982 75.5723C244.986 75.1387 245.051 74.7383 245.176 74.3711C245.301 74 245.477 73.6777 245.703 73.4043C245.93 73.1309 246.199 72.9199 246.512 72.7715C246.828 72.6191 247.178 72.543 247.561 72.543C247.873 72.543 248.154 72.5859 248.404 72.6719C248.654 72.7539 248.867 72.8867 249.043 73.0703C249.223 73.2539 249.359 73.4922 249.453 73.7852C249.547 74.0742 249.594 74.4277 249.594 74.8457V79H248.504V74.834C248.504 74.502 248.455 74.2363 248.357 74.0371C248.26 73.834 248.117 73.6875 247.93 73.5977C247.742 73.5039 247.512 73.457 247.238 73.457C246.969 73.457 246.723 73.5137 246.5 73.627C246.281 73.7402 246.092 73.8965 245.932 74.0957C245.775 74.2949 245.652 74.5234 245.562 74.7812C245.477 75.0352 245.434 75.3047 245.434 75.5898ZM250.953 75.9004V75.7656C250.953 75.3086 251.02 74.8848 251.152 74.4941C251.285 74.0996 251.477 73.7578 251.727 73.4688C251.977 73.1758 252.279 72.9492 252.635 72.7891C252.99 72.625 253.389 72.543 253.83 72.543C254.275 72.543 254.676 72.625 255.031 72.7891C255.391 72.9492 255.695 73.1758 255.945 73.4688C256.199 73.7578 256.393 74.0996 256.525 74.4941C256.658 74.8848 256.725 75.3086 256.725 75.7656V75.9004C256.725 76.3574 256.658 76.7812 256.525 77.1719C256.393 77.5625 256.199 77.9043 255.945 78.1973C255.695 78.4863 255.393 78.7129 255.037 78.877C254.686 79.0371 254.287 79.1172 253.842 79.1172C253.396 79.1172 252.996 79.0371 252.641 78.877C252.285 78.7129 251.98 78.4863 251.727 78.1973C251.477 77.9043 251.285 77.5625 251.152 77.1719C251.02 76.7812 250.953 76.3574 250.953 75.9004ZM252.037 75.7656V75.9004C252.037 76.2168 252.074 76.5156 252.148 76.7969C252.223 77.0742 252.334 77.3203 252.482 77.5352C252.635 77.75 252.824 77.9199 253.051 78.0449C253.277 78.166 253.541 78.2266 253.842 78.2266C254.139 78.2266 254.398 78.166 254.621 78.0449C254.848 77.9199 255.035 77.75 255.184 77.5352C255.332 77.3203 255.443 77.0742 255.518 76.7969C255.596 76.5156 255.635 76.2168 255.635 75.9004V75.7656C255.635 75.4531 255.596 75.1582 255.518 74.8809C255.443 74.5996 255.33 74.3516 255.178 74.1367C255.029 73.918 254.842 73.7461 254.615 73.6211C254.393 73.4961 254.131 73.4336 253.83 73.4336C253.533 73.4336 253.271 73.4961 253.045 73.6211C252.822 73.7461 252.635 73.918 252.482 74.1367C252.334 74.3516 252.223 74.5996 252.148 74.8809C252.074 75.1582 252.037 75.4531 252.037 75.7656ZM259.162 73.9199V79H258.072V72.6602H259.104L259.162 73.9199ZM258.939 75.5898L258.436 75.5723C258.439 75.1387 258.496 74.7383 258.605 74.3711C258.715 74 258.877 73.6777 259.092 73.4043C259.307 73.1309 259.574 72.9199 259.895 72.7715C260.215 72.6191 260.586 72.543 261.008 72.543C261.305 72.543 261.578 72.5859 261.828 72.6719C262.078 72.7539 262.295 72.8848 262.479 73.0645C262.662 73.2441 262.805 73.4746 262.906 73.7559C263.008 74.0371 263.059 74.377 263.059 74.7754V79H261.975V74.8281C261.975 74.4961 261.918 74.2305 261.805 74.0312C261.695 73.832 261.539 73.6875 261.336 73.5977C261.133 73.5039 260.895 73.457 260.621 73.457C260.301 73.457 260.033 73.5137 259.818 73.627C259.604 73.7402 259.432 73.8965 259.303 74.0957C259.174 74.2949 259.08 74.5234 259.021 74.7812C258.967 75.0352 258.939 75.3047 258.939 75.5898ZM263.047 74.9922L262.32 75.2148C262.324 74.8672 262.381 74.5332 262.49 74.2129C262.604 73.8926 262.766 73.6074 262.977 73.3574C263.191 73.1074 263.455 72.9102 263.768 72.7656C264.08 72.6172 264.438 72.543 264.84 72.543C265.18 72.543 265.48 72.5879 265.742 72.6777C266.008 72.7676 266.23 72.9062 266.41 73.0938C266.594 73.2773 266.732 73.5137 266.826 73.8027C266.92 74.0918 266.967 74.4355 266.967 74.834V79H265.877V74.8223C265.877 74.4668 265.82 74.1914 265.707 73.9961C265.598 73.7969 265.441 73.6582 265.238 73.5801C265.039 73.498 264.801 73.457 264.523 73.457C264.285 73.457 264.074 73.498 263.891 73.5801C263.707 73.6621 263.553 73.7754 263.428 73.9199C263.303 74.0605 263.207 74.2227 263.141 74.4062C263.078 74.5898 263.047 74.7852 263.047 74.9922ZM269.785 72.6602V79H268.695V72.6602H269.785ZM268.613 70.9785C268.613 70.8027 268.666 70.6543 268.771 70.5332C268.881 70.4121 269.041 70.3516 269.252 70.3516C269.459 70.3516 269.617 70.4121 269.727 70.5332C269.84 70.6543 269.896 70.8027 269.896 70.9785C269.896 71.1465 269.84 71.291 269.727 71.4121C269.617 71.5293 269.459 71.5879 269.252 71.5879C269.041 71.5879 268.881 71.5293 268.771 71.4121C268.666 71.291 268.613 71.1465 268.613 70.9785ZM274.062 78.2266C274.32 78.2266 274.559 78.1738 274.777 78.0684C274.996 77.9629 275.176 77.8184 275.316 77.6348C275.457 77.4473 275.537 77.2344 275.557 76.9961H276.588C276.568 77.3711 276.441 77.7207 276.207 78.0449C275.977 78.3652 275.674 78.625 275.299 78.8242C274.924 79.0195 274.512 79.1172 274.062 79.1172C273.586 79.1172 273.17 79.0332 272.814 78.8652C272.463 78.6973 272.17 78.4668 271.936 78.1738C271.705 77.8809 271.531 77.5449 271.414 77.166C271.301 76.7832 271.244 76.3789 271.244 75.9531V75.707C271.244 75.2812 271.301 74.8789 271.414 74.5C271.531 74.1172 271.705 73.7793 271.936 73.4863C272.17 73.1934 272.463 72.9629 272.814 72.7949C273.17 72.627 273.586 72.543 274.062 72.543C274.559 72.543 274.992 72.6445 275.363 72.8477C275.734 73.0469 276.025 73.3203 276.236 73.668C276.451 74.0117 276.568 74.4023 276.588 74.8398H275.557C275.537 74.5781 275.463 74.3418 275.334 74.1309C275.209 73.9199 275.037 73.752 274.818 73.627C274.604 73.498 274.352 73.4336 274.062 73.4336C273.73 73.4336 273.451 73.5 273.225 73.6328C273.002 73.7617 272.824 73.9375 272.691 74.1602C272.562 74.3789 272.469 74.623 272.41 74.8926C272.355 75.1582 272.328 75.4297 272.328 75.707V75.9531C272.328 76.2305 272.355 76.5039 272.41 76.7734C272.465 77.043 272.557 77.2871 272.686 77.5059C272.818 77.7246 272.996 77.9004 273.219 78.0332C273.445 78.1621 273.727 78.2266 274.062 78.2266ZM284.891 72.6602H285.875V78.8652C285.875 79.4238 285.762 79.9004 285.535 80.2949C285.309 80.6895 284.992 80.9883 284.586 81.1914C284.184 81.3984 283.719 81.502 283.191 81.502C282.973 81.502 282.715 81.4668 282.418 81.3965C282.125 81.3301 281.836 81.2148 281.551 81.0508C281.27 80.8906 281.033 80.6738 280.842 80.4004L281.41 79.7559C281.676 80.0762 281.953 80.2988 282.242 80.4238C282.535 80.5488 282.824 80.6113 283.109 80.6113C283.453 80.6113 283.75 80.5469 284 80.418C284.25 80.2891 284.443 80.0977 284.58 79.8438C284.721 79.5938 284.791 79.2852 284.791 78.918V74.0547L284.891 72.6602ZM280.525 75.9004V75.7773C280.525 75.293 280.582 74.8535 280.695 74.459C280.812 74.0605 280.979 73.7188 281.193 73.4336C281.412 73.1484 281.676 72.9297 281.984 72.7773C282.293 72.6211 282.641 72.543 283.027 72.543C283.426 72.543 283.773 72.6133 284.07 72.7539C284.371 72.8906 284.625 73.0918 284.832 73.3574C285.043 73.6191 285.209 73.9355 285.33 74.3066C285.451 74.6777 285.535 75.0977 285.582 75.5664V76.1055C285.539 76.5703 285.455 76.9883 285.33 77.3594C285.209 77.7305 285.043 78.0469 284.832 78.3086C284.625 78.5703 284.371 78.7715 284.07 78.9121C283.77 79.0488 283.418 79.1172 283.016 79.1172C282.637 79.1172 282.293 79.0371 281.984 78.877C281.68 78.7168 281.418 78.4922 281.199 78.2031C280.98 77.9141 280.812 77.5742 280.695 77.1836C280.582 76.7891 280.525 76.3613 280.525 75.9004ZM281.609 75.7773V75.9004C281.609 76.2168 281.641 76.5137 281.703 76.791C281.77 77.0684 281.869 77.3125 282.002 77.5234C282.139 77.7344 282.312 77.9004 282.523 78.0215C282.734 78.1387 282.986 78.1973 283.279 78.1973C283.639 78.1973 283.936 78.1211 284.17 77.9688C284.404 77.8164 284.59 77.6152 284.727 77.3652C284.867 77.1152 284.977 76.8438 285.055 76.5508V75.1387C285.012 74.9238 284.945 74.7168 284.855 74.5176C284.77 74.3145 284.656 74.1348 284.516 73.9785C284.379 73.8184 284.209 73.6914 284.006 73.5977C283.803 73.5039 283.564 73.457 283.291 73.457C282.994 73.457 282.738 73.5195 282.523 73.6445C282.312 73.7656 282.139 73.9336 282.002 74.1484C281.869 74.3594 281.77 74.6055 281.703 74.8867C281.641 75.1641 281.609 75.4609 281.609 75.7773ZM288.605 73.6562V79H287.521V72.6602H288.576L288.605 73.6562ZM290.586 72.625L290.58 73.6328C290.49 73.6133 290.404 73.6016 290.322 73.5977C290.244 73.5898 290.154 73.5859 290.053 73.5859C289.803 73.5859 289.582 73.625 289.391 73.7031C289.199 73.7812 289.037 73.8906 288.904 74.0312C288.771 74.1719 288.666 74.3398 288.588 74.5352C288.514 74.7266 288.465 74.9375 288.441 75.168L288.137 75.3438C288.137 74.9609 288.174 74.6016 288.248 74.2656C288.326 73.9297 288.445 73.6328 288.605 73.375C288.766 73.1133 288.969 72.9102 289.215 72.7656C289.465 72.6172 289.762 72.543 290.105 72.543C290.184 72.543 290.273 72.5527 290.375 72.5723C290.477 72.5879 290.547 72.6055 290.586 72.625ZM291.184 75.9004V75.7656C291.184 75.3086 291.25 74.8848 291.383 74.4941C291.516 74.0996 291.707 73.7578 291.957 73.4688C292.207 73.1758 292.51 72.9492 292.865 72.7891C293.221 72.625 293.619 72.543 294.061 72.543C294.506 72.543 294.906 72.625 295.262 72.7891C295.621 72.9492 295.926 73.1758 296.176 73.4688C296.43 73.7578 296.623 74.0996 296.756 74.4941C296.889 74.8848 296.955 75.3086 296.955 75.7656V75.9004C296.955 76.3574 296.889 76.7812 296.756 77.1719C296.623 77.5625 296.43 77.9043 296.176 78.1973C295.926 78.4863 295.623 78.7129 295.268 78.877C294.916 79.0371 294.518 79.1172 294.072 79.1172C293.627 79.1172 293.227 79.0371 292.871 78.877C292.516 78.7129 292.211 78.4863 291.957 78.1973C291.707 77.9043 291.516 77.5625 291.383 77.1719C291.25 76.7812 291.184 76.3574 291.184 75.9004ZM292.268 75.7656V75.9004C292.268 76.2168 292.305 76.5156 292.379 76.7969C292.453 77.0742 292.564 77.3203 292.713 77.5352C292.865 77.75 293.055 77.9199 293.281 78.0449C293.508 78.166 293.771 78.2266 294.072 78.2266C294.369 78.2266 294.629 78.166 294.852 78.0449C295.078 77.9199 295.266 77.75 295.414 77.5352C295.562 77.3203 295.674 77.0742 295.748 76.7969C295.826 76.5156 295.865 76.2168 295.865 75.9004V75.7656C295.865 75.4531 295.826 75.1582 295.748 74.8809C295.674 74.5996 295.561 74.3516 295.408 74.1367C295.26 73.918 295.072 73.7461 294.846 73.6211C294.623 73.4961 294.361 73.4336 294.061 73.4336C293.764 73.4336 293.502 73.4961 293.275 73.6211C293.053 73.7461 292.865 73.918 292.713 74.1367C292.564 74.3516 292.453 74.5996 292.379 74.8809C292.305 75.1582 292.268 75.4531 292.268 75.7656ZM299.92 77.875L301.549 72.6602H302.264L302.123 73.6973L300.465 79H299.768L299.92 77.875ZM298.824 72.6602L300.213 77.9336L300.312 79H299.58L297.74 72.6602H298.824ZM303.822 77.8926L305.146 72.6602H306.225L304.385 79H303.658L303.822 77.8926ZM302.422 72.6602L304.016 77.7871L304.197 79H303.506L301.801 73.6855L301.66 72.6602H302.422ZM309.992 72.6602V73.4922H306.564V72.6602H309.992ZM307.725 71.1191H308.809V77.4297C308.809 77.6445 308.842 77.8066 308.908 77.916C308.975 78.0254 309.061 78.0977 309.166 78.1328C309.271 78.168 309.385 78.1855 309.506 78.1855C309.596 78.1855 309.689 78.1777 309.787 78.1621C309.889 78.1426 309.965 78.127 310.016 78.1152L310.021 79C309.936 79.0273 309.822 79.0527 309.682 79.0762C309.545 79.1035 309.379 79.1172 309.184 79.1172C308.918 79.1172 308.674 79.0645 308.451 78.959C308.229 78.8535 308.051 78.6777 307.918 78.4316C307.789 78.1816 307.725 77.8457 307.725 77.4238V71.1191ZM312.348 70V79H311.264V70H312.348ZM312.09 75.5898L311.639 75.5723C311.643 75.1387 311.707 74.7383 311.832 74.3711C311.957 74 312.133 73.6777 312.359 73.4043C312.586 73.1309 312.855 72.9199 313.168 72.7715C313.484 72.6191 313.834 72.543 314.217 72.543C314.529 72.543 314.811 72.5859 315.061 72.6719C315.311 72.7539 315.523 72.8867 315.699 73.0703C315.879 73.2539 316.016 73.4922 316.109 73.7852C316.203 74.0742 316.25 74.4277 316.25 74.8457V79H315.16V74.834C315.16 74.502 315.111 74.2363 315.014 74.0371C314.916 73.834 314.773 73.6875 314.586 73.5977C314.398 73.5039 314.168 73.457 313.895 73.457C313.625 73.457 313.379 73.5137 313.156 73.627C312.938 73.7402 312.748 73.8965 312.588 74.0957C312.432 74.2949 312.309 74.5234 312.219 74.7812C312.133 75.0352 312.09 75.3047 312.09 75.5898Z" fill="black"/>
<path d="M236.193 214.59C236.518 215.036 237.144 215.133 237.59 214.807L244.857 209.499C245.303 209.173 245.401 208.547 245.075 208.101C244.749 207.655 244.124 207.558 243.678 207.884L237.218 212.603L232.499 206.143C232.173 205.697 231.547 205.599 231.101 205.925C230.655 206.251 230.558 206.876 230.884 207.322L236.193 214.59ZM255.012 91.8461L236.012 213.846L237.988 214.154L256.988 92.1539L255.012 91.8461Z" fill="black"/>
<path d="M163.051 137.684C162.877 138.208 163.16 138.774 163.684 138.949L172.222 141.795C172.746 141.969 173.312 141.686 173.487 141.162C173.661 140.638 173.378 140.072 172.854 139.897L165.265 137.368L167.795 129.778C167.969 129.254 167.686 128.688 167.162 128.513C166.638 128.339 166.072 128.622 165.897 129.146L163.051 137.684ZM255.553 91.1056L163.553 137.106L164.447 138.894L256.447 92.8944L255.553 91.1056Z" fill="black"/>
<path d="M274.36 299.769C274.785 300.122 275.416 300.064 275.769 299.64L281.524 292.721C281.878 292.296 281.82 291.665 281.395 291.312C280.971 290.959 280.34 291.017 279.987 291.441L274.871 297.592L268.721 292.476C268.296 292.122 267.665 292.18 267.312 292.605C266.959 293.029 267.017 293.66 267.441 294.013L274.36 299.769ZM255.004 92.0914L274.004 299.091L275.996 298.909L256.996 91.9086L255.004 92.0914Z" fill="black"/>
</svg>
